<svg xmlns="http://www.w3.org/2000/svg" width="24" height="24" viewBox="0 0 24 24" fill="none"><path d="M4.503 3.042a3.045 3.045 0 0 0-2.191 1.662c-.308.64-.288.335-.299 4.436-.009 3.138-.003 3.658.043 3.53a1.05 1.05 0 0 1 .455-.539l.189-.111 3.217-.011c3.632-.012 3.469-.025 3.783.289a.983.983 0 0 1 0 1.404c-.313.313-.152.301-3.764.289l-3.198-.011-.195-.1a1.035 1.035 0 0 1-.486-.545c-.09-.244-.056 2.113.035 2.421a3.098 3.098 0 0 0 1.648 1.948c.479.226.864.296 1.642.296h.613l.012.91c.013.903.014.912.125 1.137.131.269.321.447.626.587.284.131.691.139.962.019.1-.044.953-.659 1.898-1.367L11.334 18h3.449c3.904 0 3.843.004 4.477-.296a2.925 2.925 0 0 0 1.444-1.444c.307-.65.296-.427.296-5.76s.011-5.11-.296-5.76a2.94 2.94 0 0 0-1.408-1.428c-.658-.317.056-.289-7.676-.297-3.806-.003-7.009.009-7.117.027M7.34 7.066c.369.126.66.538.66.934s-.291.808-.66.934c-.276.094-2.399.098-2.662.005a.986.986 0 0 1-.547-.45C4.036 8.328 4.02 8.256 4.02 8s.016-.328.111-.489c.061-.103.173-.236.25-.294.264-.202.352-.213 1.602-.215.981-.002 1.193.008 1.357.064m12 0c.369.126.66.538.66.934 0 .242-.119.521-.299.701-.317.317-.038.299-4.703.299-4.514 0-4.321.009-4.624-.222a1.19 1.19 0 0 1-.243-.289c-.095-.161-.111-.233-.111-.489s.016-.328.111-.489c.125-.213.318-.375.539-.454.122-.043.94-.054 4.313-.055 3.773-.002 4.181.004 4.357.064m-4 5c.369.126.66.538.66.934s-.291.808-.66.934c-.276.094-2.399.098-2.662.005a.986.986 0 0 1-.547-.45c-.095-.161-.111-.233-.111-.489s.016-.328.111-.489c.061-.103.173-.236.25-.294.264-.202.352-.213 1.602-.215.981-.002 1.193.008 1.357.064" fill="#10161F" fill-rule="evenodd"/></svg>